<svg width="250" height="709" viewBox="0 0 250 709" fill="none" xmlns="http://www.w3.org/2000/svg">
<path d="M125 203V703M124.674 302.506L40.6735 157.506M124.481 497.5L4.33013 705.608M124.511 604.5L66.3301 705.272M88 237L88 560M125.326 302.506L209.326 157.506M125.519 497.5L245.67 705.608M125.489 604.5L183.67 705.272M162 237L162 560M225 105C225 160.228 180.228 205 125 205C69.7715 205 25 160.228 25 105C25 49.7715 69.7715 5 125 5C180.228 5 225 49.7715 225 105Z" stroke="#0011FF" stroke-width="10"/>
</svg>
