<svg width="16" height="16" viewBox="0 0 16 16" fill="none" xmlns="http://www.w3.org/2000/svg">
<g clip-path="url(#clip0_23_65)">
<circle cx="8" cy="6" r="5.5" stroke="#0011FF"/>
<circle cx="8" cy="6" r="0.5" stroke="#0011FF"/>
<circle cx="8" cy="6" r="3" stroke="#0011FF"/>
<path d="M17.5264 17.75H-1.52637L4.5498 9.61621C4.79097 9.84637 5.05456 10.0528 5.33789 10.2314L0.46875 16.75H15.5312L10.6611 10.2314C10.9445 10.0528 11.208 9.84636 11.4492 9.61621L17.5264 17.75ZM6.06738 7.58496C6.2801 7.84403 6.5443 8.0582 6.84375 8.21484L6.24023 9.02441C5.95001 8.85518 5.68638 8.64591 5.45703 8.40332L6.06738 7.58496ZM10.542 8.40332C10.3126 8.6459 10.0491 8.85522 9.75879 9.02441L9.1543 8.21582C9.45395 8.0594 9.71771 7.84488 9.93066 7.58594L10.542 8.40332ZM8.95801 6.2832C8.8567 6.62645 8.57699 6.89148 8.22559 6.97266L8 6.66992L7.77246 6.97266C7.42153 6.89088 7.14186 6.62543 7.04102 6.28223L8 5L8.95801 6.2832Z" fill="#0011FF"/>
</g>
<defs>
<clipPath id="clip0_23_65">
<rect width="16" height="16" fill="white"/>
</clipPath>
</defs>
</svg>
